<svg width="512" height="512" viewBox="0 0 512 512" fill="none" xmlns="http://www.w3.org/2000/svg">
  <rect width="512" height="512" rx="128" fill="#111827"/>
  <path d="M128 256C128 185.298 185.298 128 256 128C326.702 128 384 185.298 384 256C384 326.702 326.702 384 256 384C185.298 384 128 326.702 128 256Z" stroke="url(#paint0_linear)" stroke-width="32"/>
  <path d="M256 128V384" stroke="url(#paint1_linear)" stroke-width="32" stroke-linecap="round"/>
  <path d="M128 256H384" stroke="url(#paint2_linear)" stroke-width="32" stroke-linecap="round"/>
  <circle cx="256" cy="256" r="64" fill="#3B82F6"/>
  <circle cx="256" cy="128" r="32" fill="#60A5FA"/>
  <circle cx="256" cy="384" r="32" fill="#60A5FA"/>
  <circle cx="128" cy="256" r="32" fill="#60A5FA"/>
  <circle cx="384" cy="256" r="32" fill="#60A5FA"/>
  <defs>
    <linearGradient id="paint0_linear" x1="128" y1="128" x2="384" y2="384" gradientUnits="userSpaceOnUse">
      <stop stop-color="#3B82F6"/>
      <stop offset="1" stop-color="#8B5CF6"/>
    </linearGradient>
    <linearGradient id="paint1_linear" x1="256" y1="128" x2="256" y2="384" gradientUnits="userSpaceOnUse">
      <stop stop-color="#3B82F6"/>
      <stop offset="1" stop-color="#8B5CF6"/>
    </linearGradient>
    <linearGradient id="paint2_linear" x1="128" y1="256" x2="384" y2="256" gradientUnits="userSpaceOnUse">
      <stop stop-color="#3B82F6"/>
      <stop offset="1" stop-color="#8B5CF6"/>
    </linearGradient>
  </defs>
</svg>
